# xmcd
#
# Track frame offsets: 
#        150
#        20637
#        58872
#        114905
#        173980
#        225622
#        270187
#
# Disc length: 3988 seconds
#
# Revision: 2
# Processed by: cddbd v1.5.2PL0 Copyright (c) Steve Scherf et al.
# Submitted via: ExactAudioCopy v0.95b2
#
DISCID=530f9207
DTITLE=Grateful Dead - View From The Vault II Disc 02
DYEAR=1991
DGENRE=Rock
TTITLE0=Help On The Way >
TTITLE1=Slipknot! >
TTITLE2=Franklin's Tower >
TTITLE3=Estimated Prophet >
TTITLE4=Dark Star >
TTITLE5=Drums >
TTITLE6=Space >
EXTD=YEAR: 1991
EXTT0=
EXTT1=
EXTT2=
EXTT3=
EXTT4=
EXTT5=
EXTT6=
PLAYORDER=
